<?xml version="1.0" encoding="UTF-8" standalone="no"?>
<svg
   xmlns:dc="http://purl.org/dc/elements/1.1/"
   xmlns:cc="http://creativecommons.org/ns#"
   xmlns:rdf="http://www.w3.org/1999/02/22-rdf-syntax-ns#"
   xmlns:svg="http://www.w3.org/2000/svg"
   xmlns="http://www.w3.org/2000/svg"
   xmlns:sodipodi="http://sodipodi.sourceforge.net/DTD/sodipodi-0.dtd"
   xmlns:inkscape="http://www.inkscape.org/namespaces/inkscape"
   version="1.1"
   id="Layer_1"
   x="0px"
   y="0px"
   viewBox="14 12 48 42"
   enable-background="new 0 0 64 64"
   xml:space="preserve"
   sodipodi:docname="document-edit-flat.svg"
   inkscape:version="1.0.2 (e86c8708, 2021-01-15)"><metadata
   id="metadata107"><rdf:RDF><cc:Work
       rdf:about=""><dc:format>image/svg+xml</dc:format><dc:type
         rdf:resource="http://purl.org/dc/dcmitype/StillImage" /></cc:Work></rdf:RDF></metadata><defs
   id="defs105" /><sodipodi:namedview
   pagecolor="#ffffff"
   bordercolor="#666666"
   borderopacity="1"
   objecttolerance="10"
   gridtolerance="10"
   guidetolerance="10"
   inkscape:pageopacity="0"
   inkscape:pageshadow="2"
   inkscape:window-width="1920"
   inkscape:window-height="995"
   id="namedview103"
   showgrid="false"
   inkscape:zoom="11"
   inkscape:cx="25.090909"
   inkscape:cy="32"
   inkscape:window-x="0"
   inkscape:window-y="25"
   inkscape:window-maximized="1"
   inkscape:current-layer="g100" />
<g
   id="g100">
	
	<g
   id="g20">
		<g
   id="g18">
			<path
   fill="#FFFFFF"
   d="M41.8,10l8.2,7.8v34.8c0,0.8-0.7,1.4-1.5,1.4h-33c-0.8,0-1.5-0.6-1.5-1.4V11.4c0-0.8,0.7-1.4,1.5-1.4     H41.8z"
   id="path16" />
		</g>
	</g>
	<g
   id="g26">
		<g
   id="g24">
			<polygon
   fill="#D3D5DD"
   points="50,17.8 41.8,17.8 41.8,10    "
   id="polygon22" />
		</g>
	</g>
	<g
   id="g32">
		<g
   id="g30">
			<path
   fill="#F26DA0"
   d="M49.8,23.1L54,19c0.8-0.8,2-0.8,2.8,0l4.2,4.2c0.8,0.8,0.8,2,0,2.8l-4.1,4.2L49.8,23.1z"
   id="path28" />
		</g>
	</g>
	<g
   id="g38">
		<g
   id="g36">
			<polygon
   fill="#C1DCF7"
   points="58,29 56.9,30.2 55.4,28.6 56.5,27.5 58,29    "
   id="polygon34" />
		</g>
	</g>
	<g
   id="g44">
		<g
   id="g42">
			<polygon
   fill="#9FBAD1"
   points="56.5,27.5 55.4,28.6 51.4,24.6 52.5,23.5    "
   id="polygon40" />
		</g>
	</g>
	<g
   id="g50">
		<g
   id="g48">
			<polygon
   fill="#C1DCF7"
   points="50,22.9 51,22 51,22 52.5,23.5 51.4,24.6 49.8,23.1    "
   id="polygon46" />
		</g>
	</g>
	<g
   id="g56">
		<g
   id="g54">
			<path
   fill="#D3D5DD"
   d="M43,21c0.5,0,1,0.5,1,1s-0.5,1-1,1H19c-0.6,0-1-0.5-1-1s0.4-1,1-1H43z"
   id="path52" />
		</g>
	</g>
	<g
   id="g62">
		<g
   id="g60">
			<polygon
   fill="#E8C6AA"
   points="34,42 38,46 38,49 34,49 31,46 31,42    "
   id="polygon58" />
		</g>
	</g>
	<g
   id="g68">
		<g
   id="g66">
			<path
   fill="#D3D5DD"
   d="M36.8,16c0.5,0,1,0.5,1,1s-0.5,1-1,1H19c-0.6,0-1-0.5-1-1s0.4-1,1-1H36.8z"
   id="path64" />
		</g>
	</g>
	<g
   id="g74">
		<g
   id="g72">
			<path
   fill="#D3D5DD"
   d="M34,26c0.5,0,1,0.5,1,1s-0.5,1-1,1H19c-0.6,0-1-0.5-1-1s0.4-1,1-1H34z"
   id="path70" />
		</g>
	</g>
	<g
   id="g80">
		<g
   id="g78">
			<polygon
   points="34,49 31,49 31,46    "
   id="polygon76" />
		</g>
	</g>
	<g
   id="g86">
		<g
   id="g84">
			<path
   d="M26,47c0.5,0,1,0.5,1,1s-0.5,1-1,1h-7c-0.6,0-1-0.5-1-1s0.4-1,1-1H26z"
   id="path82" />
		</g>
	</g>
	<g
   id="g92">
		<g
   id="g90">
			<polygon
   fill="#F4A845"
   points="56.9,30.2 38,49 38,46 34,42 31,42 31,41.9 49.8,23.1    "
   id="polygon88" />
		</g>
	</g>
	<g
   id="g98">
		<g
   id="g96">
			<polygon
   fill="#F7D854"
   points="55.4,28.6 38,46 34,46 34,42 51.4,24.6    "
   id="polygon94" />
		</g>
	</g>
</g>
</svg>
